<svg width="40" height="40" viewBox="0 0 10.583333 10.701479" xmlns="http://www.w3.org/2000/svg">
    <defs>
        <linearGradient id="grad1">
            <stop offset="0" stop-color="#d4e7fc" stop-opacity="0.59"/>
            <stop offset="1" stop-color="#5c89d8" stop-opacity="0.81"/>
        </linearGradient>
        <linearGradient id="grad2">
            <stop offset="0" stop-color="#e8a24e"/>
            <stop offset="1" stop-color="#fad271"/>
        </linearGradient>
        <linearGradient id="grad3">
            <stop offset="0" stop-color="#72c2e9"/>
            <stop offset="1" stop-color="#b4dbef"/>
        </linearGradient>
    </defs>
    <g transform="translate(-87.168238,-162.45423)">
        <g transform="matrix(0.45982287,0,0,0.45982287,47.086285,87.75406)">
            <path fill="url(#grad1)" d="m 94.717939,180.4159 -3.51175,-1.82945 v -4.49029 -4.4903 l 3.57355,-1.84399 c 4.27532,-2.20613 3.23866,-2.20193 7.338111,-0.0297 l 3.42395,1.81426 v 4.5495 4.5495 l -3.42395,1.81427 c -4.083811,2.1639 -3.151541,2.16942 -7.399911,-0.0438 z"/>
            <path fill="url(#grad2)" d="m 100.7507,173.99969 v -11.54546 h 0.27106 c 0.31916,0 8.32734,4.16138 8.82341,4.58501 l 0.33917,0.28964 -0.101,13.50187 c -1.86856,0.86476 -3.67355,2.17855 -5.58703,2.94639 -0.11173,-2.9198 -0.007,0.005 -0.0895,-2.95821 l 2.88636,-1.42821 V 168.8081 c -1.19132,-0.561 -2.33362,-1.23829 -3.554,-1.73568 -0.18756,5.66883 -0.16486,11.34798 -0.19826,17.02095 -0.91353,0.47028 -1.78655,1.02748 -2.72312,1.45177 -0.0369,0 -0.067,-5.19545 -0.067,-11.54545 z"/>
            <path fill="url(#grad3)" d="m 91.735362,183.49115 c -2.43417,-1.22418 -4.569026,-2.30052 -4.56713,-2.44309 0.01597,-1.20074 0.01597,-10.23111 0,-11.40151 0.970842,-0.52839 1.873586,-1.08582 2.83531,-1.56873 l -0.1118,11.59969 6.55799,3.26086 v 1.3996 c 0,0.76978 -0.0649,1.39495 -0.14432,1.38928 -0.0794,-0.006 -2.13591,-1.01192 -4.57007,-2.2361 z"/>
        </g>
    </g>
</svg>